<svg xmlns="http://www.w3.org/2000/svg" viewBox="0 0 250 250">
  
<g transform="matrix(10.416666666666666,0,0,10.416666666666666,0,0)"><g>
  <path d="M8.38,6.6c1-.89,2.12-1.71,3.18-2.53a.34.34,0,0,0,.07-.47.34.34,0,0,0-.47-.07c-1.11.77-2.25,1.55-3.34,2.4a20.39,20.39,0,0,0-2.1,1.83L4.55,9a3,3,0,0,0-.35.39.53.53,0,0,0-.09.41.6.6,0,0,0,.23.4,2.45,2.45,0,0,0,.59.27,2.53,2.53,0,0,0,.78.1c.33,0,.65-.05,1-.08,1.27-.15,2.57-.31,3.86-.38a19.58,19.58,0,0,1,2.54,0c.45,0,.89,0,1.35,0,.66,0,1.31,0,2,0l1.07.05h.33a1.67,1.67,0,0,0,.39,0,.54.54,0,0,0,.38-.4.53.53,0,0,0-.16-.52c-.54-.51-1.11-1-1.67-1.46-.84-.69-1.7-1.36-2.55-2.06-.39-.32-.73-.72-1.1-1.07a6.22,6.22,0,0,0-.56-.46A.4.4,0,0,0,12,4.3a.38.38,0,0,0,.09.53,3.55,3.55,0,0,1,.46.41c.37.37.71.8,1.1,1.15.81.73,1.65,1.43,2.46,2.16l.46.43-.16,0-3.25-.1a18.71,18.71,0,0,0-2.7,0c-1.33.08-2.64.26-3.94.43-.26,0-.55.1-.83.12l.77-.94A22.55,22.55,0,0,1,8.38,6.6Z" style="fill: #36D9EF;fill-rule: evenodd"></path>
  <path d="M23.92,11.2a27.91,27.91,0,0,0-4.27-4.9,35.5,35.5,0,0,0-3-2.45C15.06,2.7,13.41,1.67,11.84.62c-.13-.1-.45-.29-5.43,3.62-.66.52-1.29,1.07-1.92,1.64-.31.31-.63.61-.94.94C2.36,8.09,1.3,9.47.1,10.74a.34.34,0,0,0,0,.48.35.35,0,0,0,.48,0L5.36,6.82l6.23-5.4s0-.06.05-.1c1.64,1.34,3.29,2.73,5,4.11,1.15.94,2.31,1.85,3.4,2.84a29.23,29.23,0,0,1,3.3,3.38.38.38,0,1,0,.6-.45Z" style="fill: #000000;fill-rule: evenodd"></path>
  <path d="M22.78,11.52c-1.25.08-2.51.07-3.76,0-1.91-.07-3.79-.23-5.71-.33-1.64,0-3.28,0-4.91,0-2.45.1-4.89.35-7.34.61a.34.34,0,0,0-.32.35.35.35,0,0,0,.37.32l.66,0a2.49,2.49,0,0,0,.51,1.94c.07.07.18.09.26.15-.1.51-.2,1-.26,1.55a7.13,7.13,0,0,0,0,.8,7,7,0,0,0,.07.8c.07.63.19,1.23.31,1.85A1.48,1.48,0,0,0,2.1,20a2,2,0,0,0-.35,1.12A5.27,5.27,0,0,0,2,22.53s0,.08.06.12L1,22.72a.34.34,0,1,0,0,.67c2.53,0,5.05,0,7.58,0h3.25l3.26,0c2.53-.05,5.07-.11,7.6-.14a.37.37,0,0,0,.38-.37.39.39,0,0,0-.37-.39l-.5,0s0-.07,0-.11a5.8,5.8,0,0,0,0-1.72,1.55,1.55,0,0,0-.5-.85,1.31,1.31,0,0,0-.49-.27,1,1,0,0,0-.25,0c.07-.54.16-1.06.22-1.6,0-.25.06-.5.07-.75s0-.49,0-.74c0-.46-.08-.9-.14-1.34l.25,0a1.47,1.47,0,0,0,.69-.44,2.22,2.22,0,0,0,.41-1.1,5.58,5.58,0,0,0-.05-1.16c.13,0,.27,0,.4,0a.37.37,0,0,0,.34-.41A.37.37,0,0,0,22.78,11.52Zm-8.87,1a4.56,4.56,0,0,1-.05.62,1.17,1.17,0,0,1-.32.68c-.07.07-.18,0-.29.06a5.21,5.21,0,0,1-.9,0,7.13,7.13,0,0,1-1.1-.06,1.37,1.37,0,0,1-.53-.15,1.74,1.74,0,0,1-.47-1.16c1,0,2,0,3,0ZM12.7,17.84c.05.53.15,1,.22,1.56l-.15,0c-.41,0-.95,0-1.48,0,0,0,0-.06,0-.09,0-.57.09-1.13.12-1.7,0-.24,0-.48,0-.72s0-.48,0-.72-.1-.75-.16-1.12a6.66,6.66,0,0,0,1.08.11h.45c-.06.44-.13.87-.15,1.31a5.63,5.63,0,0,0,0,.71C12.64,17.37,12.67,17.61,12.7,17.84ZM6,12.43h.21a4.11,4.11,0,0,1-.06.69,1.17,1.17,0,0,1-.32.68c-.07.07-.18,0-.29.06a5.09,5.09,0,0,1-.89,0,7.19,7.19,0,0,1-1.11-.06A1.32,1.32,0,0,1,3,13.63a1.64,1.64,0,0,1-.47-1.14C3.68,12.46,4.83,12.43,6,12.43ZM3.51,16.14c0-.39-.1-.77-.16-1.15a5.74,5.74,0,0,0,1.26.13l.79,0c-.07.42-.15.85-.19,1.28a7.31,7.31,0,0,0,0,.81c0,.27,0,.54,0,.81,0,.48.1,1,.15,1.42l-.2,0a11.47,11.47,0,0,0-1.76,0c0-.56.08-1.11.11-1.67,0-.26,0-.52,0-.79S3.53,16.4,3.51,16.14Zm-.89,6.29a7.18,7.18,0,0,1,0-1,1.11,1.11,0,0,1,.29-.67c.16-.15.39-.12.65-.14.53,0,1.13,0,1.57.05h.72a.75.75,0,0,1,.29.44,8.94,8.94,0,0,1,.14,1.27c-1.24.08-2.48.15-3.71.26A.37.37,0,0,0,2.62,22.43Zm5.93-.24c-.5,0-1,.08-1.5.11a6.29,6.29,0,0,0,0-1.68,1.55,1.55,0,0,0-.5-.85,1.23,1.23,0,0,0-.33-.19c.08-.53.16-1,.2-1.59,0-.27,0-.54,0-.81s0-.54,0-.81c0-.52-.14-1-.22-1.54a1.36,1.36,0,0,0,.43-.27,2.22,2.22,0,0,0,.41-1.1,5.77,5.77,0,0,0,0-1H9.5a2.47,2.47,0,0,0,.51,2,1.63,1.63,0,0,0,.45.25,10.11,10.11,0,0,0-.26,1.44,4.59,4.59,0,0,0,0,.74,6.36,6.36,0,0,0,.08.75,16.64,16.64,0,0,0,.33,1.71s0,.07,0,.11A1.6,1.6,0,0,0,9.7,20a2,2,0,0,0-.35,1.12,4.35,4.35,0,0,0,.14,1Zm1.67,0a6.5,6.5,0,0,1,0-.76,1.06,1.06,0,0,1,.29-.67c.16-.15.39-.12.65-.14.53,0,1.13,0,1.57.05h.72a.75.75,0,0,1,.29.44,5.75,5.75,0,0,1,.12,1.07c-.68,0-1.36,0-2,0Zm4.44,0a5.31,5.31,0,0,0,0-1.54,1.55,1.55,0,0,0-.5-.85,1.17,1.17,0,0,0-.46-.26,0,0,0,0,0,0,0c.07-.56.16-1.12.2-1.69,0-.24,0-.48,0-.72s0-.48-.06-.72c-.07-.46-.19-.9-.3-1.35l.11,0a1.45,1.45,0,0,0,.7-.44,2.12,2.12,0,0,0,.4-1.1,5.13,5.13,0,0,0,0-1l2.48,0a2.6,2.6,0,0,0,.33,1.66,15.14,15.14,0,0,0-.23,1.76c0,.28,0,.56,0,.84s0,.55.06.83c.07.65.18,1.28.25,1.93,0,.05,0,.08.06.13a1.28,1.28,0,0,0-.39.34,2,2,0,0,0-.35,1.12,4.88,4.88,0,0,0,.15,1.11l-2-.08Zm6.68-1.08a9.07,9.07,0,0,1,.14,1.28s0,0,0,.07l-3.7-.16a6.4,6.4,0,0,1,0-.87,1.06,1.06,0,0,1,.29-.67c.16-.15.39-.12.65-.14.53,0,1.13,0,1.57.05h.72A.75.75,0,0,1,21.34,21.08ZM20,17.83c0,.52.1,1,.17,1.54a8.27,8.27,0,0,0-1.79,0c.07-.6.14-1.2.18-1.81,0-.28,0-.56,0-.83s0-.56-.05-.83-.11-.76-.18-1.13a2,2,0,0,0,.35.19,5.83,5.83,0,0,0,1.35.14h.26c-.09.39-.19.79-.26,1.2q0,.38-.06.75C20,17.32,20,17.57,20,17.83Zm1.58-4.71a1.31,1.31,0,0,1-.32.68c-.07.07-.19,0-.3.06a5.09,5.09,0,0,1-.89,0A7.27,7.27,0,0,1,19,13.78a1.32,1.32,0,0,1-.52-.15A1.58,1.58,0,0,1,18,12.52h1c.88,0,1.76-.1,2.64-.18A5.14,5.14,0,0,1,21.6,13.12Z" style="fill: #000000;fill-rule: evenodd"></path>
</g></g></svg>