<svg xmlns="http://www.w3.org/2000/svg" viewBox="0 0 250 250">
  
<g transform="matrix(10.416666666666666,0,0,10.416666666666666,0,0)"><g>
    <path d="M10.63,14.57a41.28,41.28,0,0,0-6.09-.05c-1.47.1-2.67.23-3.4.26a.34.34,0,1,0,0,.68,41.13,41.13,0,0,0,9.52-.29A.3.3,0,0,0,10.63,14.57Z" style="fill: #000000;fill-rule: evenodd"></path>
    <path d="M22.62,14.22a6,6,0,0,0-9.61.6c-1.7,2.51-.82,6.19.87,7.27a.31.31,0,0,0,.35-.52c-1.34-.94-2-4.17-.43-6.19A5.06,5.06,0,0,1,21.69,15c2.5,3,1,7.44-3.37,8a5.87,5.87,0,0,1-2.4-.17.35.35,0,0,0-.23.67,6.69,6.69,0,0,0,2.71.3A5.75,5.75,0,0,0,22.62,14.22Z" style="fill: #000000;fill-rule: evenodd"></path>
    <path d="M16.61,20.36c1.18.06,2.59-3.23,3.09-4.29a1.08,1.08,0,0,0,.28-.6.37.37,0,0,0-.67-.18c-.25.29-2.81,4-2.75,4.11-.21,0-1.24-1.21-1.39-1.3s-.61.17-.37.52C15.21,19.24,15.92,20.32,16.61,20.36Z" style="fill: #000000;fill-rule: evenodd"></path>
    <g>
      <path d="M6.27,8.12a35.28,35.28,0,0,0-5.13,5.35.34.34,0,1,0,.52.44C2.92,12.6,4.71,11.47,7,8.6,7.25,7.79,7.18,7.4,6.27,8.12Z" style="fill: #36D9EF;fill-rule: evenodd"></path>
      <path d="M18.44,1C17.62.22,3.15-.38.64,1.41a.94.94,0,0,0-.31.51C-.15,3.64,0,12.77.2,14.4a.3.3,0,0,0,.6-.07A83.58,83.58,0,0,1,1.22,2.92C2.56,4,8.25,8.61,10,8.58s6.94-5.1,8-6.4a14.39,14.39,0,0,1,.27,2.71c.15,4.87-.47,5.65.2,5.7a.33.33,0,0,0,.36-.31C18.94,8.76,19.52,2.11,18.44,1ZM10,7.42c-.89,0-8.46-5-8.55-5.22,2.17-1.09,14.56-.92,16-.46C15.71,3.63,10.57,7.41,10,7.42Z" style="fill: #000000;fill-rule: evenodd"></path>
      <path d="M13.33,7.93c-1.05-.58-1.39-.4-.86.69a14.75,14.75,0,0,0,2.19,2.18.34.34,0,0,0,.52-.44A12.53,12.53,0,0,0,13.33,7.93Z" style="fill: #36D9EF;fill-rule: evenodd"></path>
    </g>
  </g></g></svg>