<svg xmlns="http://www.w3.org/2000/svg" viewBox="0 0 250 250">
  
<g transform="matrix(10.416666666666666,0,0,10.416666666666666,0,0)"><g>
  <path d="M3.53,20.37a.3.3,0,1,0,.34-.5,5.21,5.21,0,0,1-1.38-1.53,9.33,9.33,0,0,1-1-3,12.25,12.25,0,0,1-.32-2.62A11.94,11.94,0,0,1,1.22,11,9.37,9.37,0,0,1,2.67,6.81a.34.34,0,0,0-.56-.4A9.92,9.92,0,0,0,.18,10.82,10.45,10.45,0,0,0,0,12.76a11.45,11.45,0,0,0,.38,2.9,11.48,11.48,0,0,0,1.11,2.65A5.9,5.9,0,0,0,3.53,20.37Z" style="fill: #000000;fill-rule: evenodd"></path>
  <path d="M9.07,2.34a11.42,11.42,0,0,1,5.76.52,13.27,13.27,0,0,1,2.61,1.22,10.51,10.51,0,0,1,2.23,1.81,11.36,11.36,0,0,1,.92,1.18,10.62,10.62,0,0,1,.76,1.29.33.33,0,0,0,.45.17A.34.34,0,0,0,22,8.08a12,12,0,0,0-.71-1.44,12.33,12.33,0,0,0-.89-1.33,9.72,9.72,0,0,0-2.33-2.18,10.53,10.53,0,0,0-2.87-1.36,11.43,11.43,0,0,0-6.25,0,.32.32,0,0,0-.23.37A.32.32,0,0,0,9.07,2.34Z" style="fill: #000000;fill-rule: evenodd"></path>
  <path d="M22.17,15.76a.31.31,0,0,0-.39.19A10.05,10.05,0,0,1,18,20.56a12.71,12.71,0,0,1-2.68,1.36,13.64,13.64,0,0,1-3,.75,14.07,14.07,0,0,1-1.43.13,13.76,13.76,0,0,1-1.44,0,.34.34,0,0,0-.08.68,12.44,12.44,0,0,0,1.52.14c.5,0,1,0,1.52,0A13,13,0,0,0,15.65,23a10.47,10.47,0,0,0,3-1.49,10.23,10.23,0,0,0,3.73-5.35A.3.3,0,0,0,22.17,15.76Z" style="fill: #000000;fill-rule: evenodd"></path>
  <path d="M9.32,3.86H9.23l-.05,0a10.06,10.06,0,0,1-1-.18l-1.8-.54C7,1.65,7.66.85,7.66.71S7.52.43,7.39.4a.34.34,0,0,0-.27.09L6.91.71c-.43.48-1.42,1.68-1.64,2A2.45,2.45,0,0,0,5,3.39a.59.59,0,0,0,.1.47.66.66,0,0,0,.33.25,4.61,4.61,0,0,0,.6.11,7.78,7.78,0,0,0,.81.17c.39.06.79.1,1.19.14.18,0,.87,0,1.15,0C9.73,4.54,9.51,3.88,9.32,3.86Z" style="fill: #000000;fill-rule: evenodd"></path>
  <path d="M24,16.41c0-.6-.2-2-.24-2.45a3.36,3.36,0,0,0-.23-.78.62.62,0,0,0-.51-.33.93.93,0,0,0-.43.07c-.13.06-.27.17-.38.23l-2.55,1.71a.34.34,0,0,0,.12.47.81.81,0,0,0,.6-.05c.55-.21,1.71-.81,2.27-1.06.13.44.55,1.73.7,2.3.08.27,0,.38.2.47a.31.31,0,0,0,.42-.1A1.2,1.2,0,0,0,24,16.41Z" style="fill: #000000;fill-rule: evenodd"></path>
  <path d="M5.77,20.41a8.3,8.3,0,0,0-.31-1c-.28-.8-.09-1.07-.38-1.19a.42.42,0,0,0-.43.39,6.54,6.54,0,0,0,0,1c0,.28,0,.54.06.8a6.28,6.28,0,0,1,0,.75.08.08,0,0,0,0,0,.78.78,0,0,0-.19-.06c-.39,0-.86-.07-1.31-.14a4.67,4.67,0,0,1-.83-.17.35.35,0,0,0-.45.18.36.36,0,0,0,.19.46,6.69,6.69,0,0,0,.88.36c.46.16.94.29,1.34.39a3.69,3.69,0,0,0,.62.13,1,1,0,0,0,.56-.14.73.73,0,0,0,.3-.41,2.38,2.38,0,0,0,0-.62A3.66,3.66,0,0,0,5.77,20.41Z" style="fill: #000000;fill-rule: evenodd"></path>
</g></g></svg>