<?xml version="1.0" standalone="no"?>
<!DOCTYPE svg PUBLIC "-//W3C//DTD SVG 20010904//EN"
 "http://www.w3.org/TR/2001/REC-SVG-20010904/DTD/svg10.dtd">
<svg version="1.0" xmlns="http://www.w3.org/2000/svg"
 width="837.000000pt" height="837.000000pt" viewBox="0 0 837.000000 837.000000"
 preserveAspectRatio="xMidYMid meet">
<metadata>
Created by potrace 1.14, written by Peter Selinger 2001-2017
</metadata>
<g transform="translate(0.000000,837.000000) scale(0.100000,-0.100000)"
fill="#000000" stroke="none">
<path d="M4317 8184 c-2 -1 -236 -14 -297 -16 -15 0 -281 -35 -335 -44 -230
-37 -596 -134 -750 -199 -16 -7 -77 -32 -135 -56 -364 -150 -710 -362 -1031
-630 -220 -185 -447 -425 -618 -654 -45 -60 -85 -114 -89 -120 -43 -56 -176
-273 -234 -383 l-45 -82 -244 182 c-134 99 -261 189 -281 198 -75 33 -188 -6
-233 -82 -23 -40 -24 -97 -1 -243 21 -130 19 -122 46 -300 11 -77 27 -187 36
-245 8 -58 19 -132 24 -165 6 -33 28 -184 50 -335 22 -151 48 -296 57 -321 47
-134 188 -239 337 -252 26 -2 119 6 205 18 86 13 176 26 201 29 25 4 56 9 70
11 14 3 39 7 55 9 17 2 48 7 70 11 22 3 54 7 70 10 33 4 93 13 140 20 17 3 46
7 65 10 122 18 291 43 340 50 14 2 48 7 75 10 28 4 57 8 65 10 8 2 35 7 60 10
25 3 59 8 75 11 126 20 198 156 143 268 -20 42 -69 82 -332 276 -61 44 -121
89 -135 99 -15 11 -82 61 -151 112 -69 50 -129 95 -134 99 -23 22 200 409 350
606 130 172 343 397 489 519 33 28 65 55 71 60 6 6 22 17 34 25 12 8 28 20 35
26 25 25 235 164 325 216 107 63 264 139 390 191 97 40 311 113 353 121 16 3
43 10 60 15 18 6 43 12 57 15 14 3 61 12 104 21 89 17 109 21 181 31 28 3 58
8 69 10 132 24 621 24 766 0 14 -3 72 -12 130 -21 314 -50 664 -167 954 -318
384 -201 704 -458 996 -803 52 -61 153 -199 214 -292 97 -148 150 -248 266
-497 15 -32 59 -153 90 -245 59 -175 96 -333 135 -580 5 -29 15 -131 21 -210
11 -130 4 -443 -11 -560 -3 -19 -7 -55 -10 -80 -14 -115 -34 -217 -72 -365
-180 -709 -594 -1327 -1188 -1777 -191 -144 -460 -298 -687 -392 -141 -58
-364 -130 -468 -151 -8 -2 -42 -10 -75 -18 -33 -9 -78 -18 -100 -22 -23 -3
-50 -7 -62 -9 -74 -15 -249 -33 -375 -40 -102 -6 -126 -11 -195 -43 -101 -45
-181 -145 -213 -262 -50 -188 58 -398 242 -471 53 -21 79 -25 168 -25 134 1
230 9 405 35 287 42 463 82 710 164 1372 455 2394 1619 2669 3041 26 137 31
164 42 260 3 33 8 68 10 78 17 92 24 530 11 702 -11 152 -57 457 -91 615 -3
14 -8 34 -10 45 -56 251 -192 617 -326 880 -106 205 -275 475 -384 612 -173
216 -375 433 -526 563 -41 36 -79 70 -85 76 -5 6 -30 26 -55 45 -25 18 -50 38
-56 44 -21 20 -264 190 -331 232 -355 221 -749 391 -1133 488 -122 31 -100 26
-265 58 -122 24 -155 29 -280 43 -27 3 -63 7 -80 9 -16 3 -97 7 -180 11 -82 3
-167 7 -188 8 -20 1 -38 1 -40 0z"/>
<path d="M4014 6691 c-51 -23 -100 -80 -115 -133 -10 -36 -8 -69 11 -198 12
-85 25 -171 27 -190 2 -19 6 -40 8 -46 1 -6 -40 -27 -92 -48 -340 -134 -572
-408 -633 -746 -54 -294 28 -715 184 -944 155 -228 321 -332 785 -490 307
-105 397 -150 502 -255 109 -109 167 -255 173 -436 4 -140 -23 -232 -94 -308
-66 -73 -156 -107 -270 -103 -152 5 -263 104 -351 316 -63 151 -192 232 -363
227 -68 -3 -93 -8 -142 -32 -182 -89 -263 -295 -188 -480 97 -244 280 -448
496 -555 91 -44 217 -84 300 -96 29 -4 62 -8 73 -10 11 -1 48 -3 82 -3 72 -1
69 4 89 -156 14 -117 37 -222 56 -253 62 -100 219 -120 306 -39 59 55 75 129
53 252 -5 33 -13 80 -16 105 -8 56 -16 107 -20 130 -3 14 11 23 63 40 342 115
601 397 663 724 27 143 28 337 3 471 -31 164 -45 216 -84 310 -141 336 -354
506 -885 705 -327 122 -478 209 -566 327 -42 56 -83 154 -97 233 -14 78 -13
231 3 290 62 235 300 296 459 119 25 -28 70 -101 101 -162 64 -128 121 -193
202 -232 50 -23 155 -47 178 -39 5 1 30 5 55 8 96 12 200 86 255 180 90 154
59 326 -101 551 -143 203 -343 343 -572 401 -86 22 -113 27 -184 33 -16 1 -19
11 -34 116 -5 39 -9 66 -18 123 -3 15 -7 49 -10 76 -13 110 -50 177 -119 212
-45 24 -126 26 -173 5z"/>
<path d="M830 3597 c-200 -25 -354 -198 -352 -394 2 -184 122 -343 294 -389
211 -56 433 66 494 272 40 139 -1 297 -104 400 -90 90 -203 128 -332 111z"/>
<path d="M1546 2198 c-57 -12 -148 -64 -195 -110 -82 -81 -122 -187 -117 -307
10 -215 197 -386 411 -376 86 5 100 8 161 35 94 43 200 170 221 266 8 34 8
169 0 200 -29 118 -139 233 -267 281 -43 17 -162 23 -214 11z"/>
<path d="M2808 1256 c-202 -58 -329 -271 -282 -474 28 -124 100 -218 207 -271
126 -62 239 -63 363 -4 189 89 276 335 187 525 -51 108 -156 198 -265 225 -50
12 -165 12 -210 -1z"/>
</g>
</svg>
